<svg width="256" height="256" viewBox="0 0 256 256" fill="none" xmlns="http://www.w3.org/2000/svg">
<rect width="256" height="256" fill="#50B748"/>
<path fill-rule="evenodd" clip-rule="evenodd" d="M238 127.997C238 188.753 188.75 238 128 238C67.247 238 18 188.753 18 127.997C18 67.2498 67.247 18 128 18C188.75 18 238 67.2498 238 127.997Z" fill="white"/>
<path fill-rule="evenodd" clip-rule="evenodd" d="M142.666 135.353L186.671 91.2567H171.997L142.666 120.649L135.332 113.295L157.326 91.2567H142.671L127.995 105.956L113.34 91.2567L40 164.748H54.663L113.326 105.947L142.666 135.353Z" fill="#50B748"/>
<path fill-rule="evenodd" clip-rule="evenodd" d="M201.337 91.2563L201.329 91.251V91.2563L142.666 150.051L113.34 120.648L69.3315 164.75H83.9946L113.34 135.35L120.669 142.695L98.6548 164.75H113.34L127.995 150.051L142.671 164.75L216 91.2563H201.337Z" fill="#50B748"/>
</svg>
